<svg width="83" height="83" viewBox="0 0 83 83" fill="none" xmlns="http://www.w3.org/2000/svg">
<rect width="83" height="83" fill="#F5F5F5"/>
<circle cx="41" cy="41" r="28.5" fill="white" stroke="#5956E9" stroke-width="5"/>
<path d="M38 25C38 23.8954 38.8954 23 40 23H41C42.1046 23 43 23.8954 43 25V47C43 48.1046 42.1046 49 41 49H40C38.8954 49 38 48.1046 38 47V25Z" fill="#5956E9"/>
<path d="M43 54.5C43 55.8807 41.8807 57 40.5 57C39.1193 57 38 55.8807 38 54.5C38 53.1193 39.1193 52 40.5 52C41.8807 52 43 53.1193 43 54.5Z" fill="#5956E9"/>
</svg>
